<?xml version="1.0" standalone="no"?>
<!DOCTYPE svg PUBLIC "-//W3C//DTD SVG 20010904//EN"
 "http://www.w3.org/TR/2001/REC-SVG-20010904/DTD/svg10.dtd">
<svg version="1.0" xmlns="http://www.w3.org/2000/svg"
 width="249.000000pt" height="249.000000pt" viewBox="0 0 249.000000 249.000000"
 preserveAspectRatio="xMidYMid meet">
<metadata>
Created by potrace 1.14, written by Peter Selinger 2001-2017
</metadata>
<g transform="translate(0.000000,249.000000) scale(0.100000,-0.100000)"
fill="#000000" stroke="none">
<path d="M1175 2415 c-16 -8 -82 -34 -145 -58 -274 -105 -547 -210 -575 -222
-16 -7 -82 -32 -145 -56 -63 -24 -118 -47 -121 -52 -3 -5 -10 -9 -15 -8 -33 1
-53 -13 -58 -44 -8 -39 -9 -289 -1 -324 2 -13 7 -47 10 -75 7 -78 32 -213 55
-296 7 -25 13 -49 14 -55 1 -5 5 -16 9 -22 5 -7 5 -13 1 -13 -3 0 1 -11 10
-25 9 -14 14 -25 11 -25 -6 0 22 -77 59 -162 9 -20 16 -41 16 -47 0 -6 5 -11
10 -11 6 0 9 -3 8 -7 -3 -12 36 -93 44 -93 5 0 8 -5 8 -12 0 -13 79 -139 95
-150 5 -4 7 -8 2 -8 -4 0 1 -9 10 -19 31 -33 62 -72 60 -74 -6 -7 197 -217
254 -262 28 -22 27 -21 120 -82 35 -24 69 -47 75 -52 18 -15 221 -112 241
-115 10 -2 25 1 33 5 31 17 109 49 119 49 6 0 11 4 11 8 0 5 12 14 28 21 15 7
38 20 52 29 14 9 27 17 30 17 9 1 64 38 145 99 82 62 193 168 255 245 19 24
40 49 45 55 20 21 103 141 129 186 56 96 155 315 172 380 2 8 17 62 34 120 17
58 33 121 35 140 2 19 9 60 15 90 6 30 14 89 17 130 9 103 7 370 -4 380 -4 5
-62 29 -128 55 -66 26 -129 51 -140 55 -11 5 -69 27 -130 50 -60 24 -119 46
-130 51 -11 5 -90 35 -175 67 -85 33 -164 63 -175 67 -11 5 -22 9 -25 10 -3 1
-14 5 -25 10 -167 70 -188 74 -240 50z"/>
</g>
</svg>
